PathFileType	4	(X/Y/Z)	C:\Users\WrightLab\Desktop\Jo\P4V119.trc
DataRate	CameraRate	NumFrames	NumMarkers	Units	OrigDataRate	OrigDataStartFrame	OrigNumFrames
100.00	100.00	       15	19	mm	100.00	262	       697
Frame#	Time	Headset_Front			Headset_Back			Headset_Left			Headset_Right			Left_Shoulder			Right_Shoulder			Sternum			C7			Left Elbow			Right Elbow			Left Wrist			Right Wrist			Left ASIS			Right ASIS			S2			Left Knee			Right Knee			Left Ankle			Right Ankle			
		X1	Y1	Z1	X2	Y2	Z2	X3	Y3	Z3	X4	Y4	Z4	X5	Y5	Z5	X6	Y6	Z6	X7	Y7	Z7	X8	Y8	Z8	X9	Y9	Z9	X10	Y10	Z10	X11	Y11	Z11	X12	Y12	Z12	X13	Y13	Z13	X14	Y14	Z14	X15	Y15	Z15	X16	Y16	Z16	X17	Y17	Z17	X18	Y18	Z18	X19	Y19	Z19	

262	2.610	-555.31244	1423.89844	-868.59723													-671.20911	1490.92285	-1026.86743	-534.60120	1742.11182	-1052.61035				-234.04652	1158.88049	-881.19562	-825.43237	1148.28113	-1028.74170	-305.71790	874.11768	-773.23523	-847.30933	946.90961	-801.09412	-411.38806	998.23859	-842.25238	-694.34924	1006.70313	-1017.81763				-488.72653	564.48425	-710.86285	-641.68604	522.50909	-1087.69824	-514.77484	51.61422	-801.48907				
263	2.620	-559.17291	1423.70959	-860.71088													-674.49841	1489.76062	-1017.41052	-537.47101	1740.69458	-1043.58423	-516.84583	1531.05676	-1013.34021	-236.80750	1156.86975	-873.86230	-829.50598	1147.67688	-1017.91083	-307.42361	871.53223	-766.55334	-850.54309	948.63550	-788.89319	-416.23846	995.35138	-834.55847	-698.93408	1005.47375	-1008.21576				-492.78860	562.18036	-704.59711	-643.76453	522.34082	-1082.67834	-531.51923	46.57215	-771.53741				
264	2.630	-562.59637	1421.97021	-851.45917													-677.70367	1488.53381	-1007.94873	-540.13263	1739.25439	-1034.54260	-519.73236	1529.91187	-1004.63422	-239.92348	1155.06262	-866.83307	-833.37134	1147.21191	-1007.75604	-309.22427	867.96222	-763.93140	-852.16779	949.41693	-776.11426	-419.82645	993.61346	-825.08960	-703.05682	1004.79510	-999.34875				-495.25168	558.31024	-698.82520	-646.64215	521.49078	-1077.38623	-552.17010	40.06669	-745.23383				
265	2.640	-564.03516	1419.85107	-841.64294													-680.63965	1487.38965	-998.53918	-542.67670	1737.82043	-1025.98523	-522.62811	1528.07886	-995.69421	-242.63557	1152.68469	-859.08478	-837.29578	1146.63489	-996.95520	-311.10736	865.10797	-758.61725	-854.92059	951.65826	-763.00543	-423.93625	990.01184	-814.72095	-707.28906	1003.21368	-989.47076				-497.48343	553.42798	-693.75696	-649.00024	520.51837	-1071.80444	-568.66803	36.98127	-717.79095				
266	2.650	-567.72375	1419.77686	-833.28546													-683.42017	1486.21204	-989.60205	-545.10864	1736.12366	-1017.14313	-525.29553	1526.47327	-986.77130	-245.48297	1150.81409	-853.01019	-840.85724	1145.63489	-986.72900	-312.24371	861.84326	-753.27930	-858.01886	952.62109	-751.25470	-428.12103	987.16248	-806.14319	-711.82831	1001.27679	-979.79889				-499.57956	548.77051	-688.84094	-651.66840	519.73322	-1066.15649	-587.56421	32.90579	-690.33289				
267	2.660	-571.07336	1418.12268	-823.77435													-686.08331	1484.86121	-979.60284	-547.51361	1734.21069	-1007.88513	-527.86407	1524.72510	-977.71576	-247.95853	1148.57007	-846.19501	-843.94519	1144.22437	-975.13245	-314.47775	859.01208	-748.81500	-860.66553	953.68750	-738.56824	-433.21078	984.74713	-796.73547	-717.09601	999.97845	-970.56293				-503.16190	542.75745	-684.94171	-654.61383	518.95313	-1060.57336	-603.27429	31.68389	-664.98615				
268	2.670	-571.84460	1415.11890	-814.26709													-688.63116	1483.49329	-970.44843	-549.86169	1732.24951	-998.73090	-530.28040	1522.58093	-968.08740	-250.41797	1146.14941	-838.89520	-847.48999	1143.28589	-964.20526	-315.91107	855.73737	-741.94891	-863.10999	954.41309	-726.50543	-436.91882	981.93658	-786.42108	-721.08539	999.14954	-960.25458				-506.47330	536.56567	-680.56360	-657.82886	517.72742	-1053.89368	-617.80682	31.44840	-640.04852				
269	2.680	-574.54260	1413.91345	-804.74225													-691.13647	1481.68079	-960.41992	-551.98810	1730.22620	-989.35443	-532.56427	1520.42712	-958.92279	-253.09900	1143.20996	-830.76093	-850.68860	1142.86487	-953.39386	-317.14447	852.08533	-737.37891	-865.88367	955.08087	-713.50446	-440.90396	978.30573	-776.02600	-725.44702	997.42487	-949.73199				-509.48962	530.38806	-676.87396	-660.81177	516.24420	-1046.79578	-630.64679	31.83035	-616.22070				
270	2.690	-577.94672	1412.89990	-795.38000													-693.42499	1480.11389	-950.96460	-554.02350	1728.16101	-980.36212	-534.79657	1518.29749	-949.84009	-255.54951	1140.93396	-823.71320	-853.77875	1140.89160	-942.27612	-318.53198	848.73663	-731.31042	-867.98474	955.23407	-702.09924	-445.08176	975.00586	-766.19775	-728.67059	994.95624	-938.44647				-513.29999	524.79395	-671.94891	-664.52582	516.30438	-1041.23303	-643.31207	32.31444	-593.56244				
271	2.700	-578.93036	1410.21936	-784.94873	-654.34717	1670.99805	-765.56775										-695.64502	1478.29895	-940.92004	-555.92047	1726.16150	-970.98694	-536.88342	1515.99731	-940.27582	-257.60782	1137.73865	-816.43622	-856.70782	1140.05396	-931.80280	-320.07443	845.23083	-725.32056	-869.53949	954.91779	-689.73151	-449.09384	973.06781	-755.17590	-732.99969	993.40424	-927.59595				-519.51971	519.33191	-667.41693	-668.62891	515.01630	-1033.41980	-652.56006	33.24180	-574.94397				
272	2.710	-581.06476	1408.29529	-775.35852	-444.98557	1610.80347	-620.96533										-697.91748	1476.81287	-931.51019	-557.70325	1724.10339	-961.50726	-538.84149	1513.83496	-930.39838	-260.13696	1134.92188	-807.66760	-859.44904	1138.33545	-919.38580	-321.17303	841.97363	-716.44226	-871.81012	954.49524	-677.70306	-452.26755	970.63074	-746.18457	-737.19086	992.16272	-917.61328				-525.63531	515.39771	-658.31067	-672.75372	514.38623	-1025.42297	-660.83405	34.73486	-557.03296				
273	2.720	-582.37567	1406.34570	-765.23840													-699.78918	1474.77271	-921.27069	-559.38611	1721.99011	-952.32471	-540.76044	1511.47253	-920.88757	-262.43134	1132.15820	-800.52429	-862.17090	1137.36584	-909.33966	-322.86758	838.24249	-712.04181	-874.50116	954.04889	-665.80719	-456.16034	966.96173	-735.00409	-741.59875	990.89276	-906.18506				-530.33966	513.33252	-648.46735	-676.98212	513.12140	-1017.10065	-668.16882	31.74664	-543.94470				
274	2.730	-584.86761	1405.89001	-755.43665													-702.18408	1472.96350	-910.85419	-560.93671	1720.12036	-942.17578	-542.71149	1509.16187	-910.76648	-264.90701	1128.81531	-792.63611	-864.86725	1135.20300	-897.68640	-323.83420	834.65594	-704.69165	-876.23810	952.58618	-654.44141	-460.28021	964.15503	-725.48285	-745.89935	989.66003	-895.19250				-535.47870	512.38519	-637.00824	-681.78882	512.96863	-1008.82678	-672.99512	31.83862	-534.69263				
275	2.740	-585.84247	1403.90552	-744.44434	-449.55194	1605.66357	-591.75775										-703.60004	1471.30884	-899.99792	-562.42645	1718.09534	-932.72290	-544.45569	1507.48779	-901.28247	-266.79166	1126.48499	-783.93262	-867.21130	1134.37378	-887.24927	-325.19916	831.48688	-697.92969	-878.51642	952.91101	-643.33423	-464.41714	961.92188	-715.75049	-749.37445	989.12048	-884.10059				-541.55444	512.08948	-624.62164	-686.28821	512.40363	-999.43976	-676.47351	28.67112	-529.50769				
276	2.750	-587.08099	1401.89771	-733.68085	-418.85782	1472.04980	-779.97699										-705.81976	1470.26721	-889.75366	-563.73553	1716.48425	-923.01428	-546.10779	1505.92847	-890.96954	-268.86459	1123.92639	-775.27258	-869.49689	1132.67688	-875.03229	-326.30447	828.09906	-688.55688	-880.66821	951.01215	-631.72137	-468.27432	959.60974	-705.21918	-753.09320	988.36194	-872.11365				-546.33105	512.12573	-611.18103	-691.83673	512.21393	-989.66437							
